<?xml version="1.0" encoding="UTF-8" standalone="no" ?>
<!DOCTYPE svg PUBLIC "-//W3C//DTD SVG 1.1//EN" "http://www.w3.org/Graphics/SVG/1.1/DTD/svg11.dtd">
<svg xmlns="http://www.w3.org/2000/svg" xmlns:xlink="http://www.w3.org/1999/xlink" version="1.1" width="8pt" height="22pt" viewBox="0 0 400 1080" xml:space="preserve">
<g transform="matrix(0 0 0 0 0 0)" id="1c216d0e-15ff-4c8c-ae49-fe84473b091a"  >
</g>
<g transform="matrix(1 0 0 1 200 540)" id="05a85ca2-fbd3-4076-a6ae-9bb31fc03ee7"  >
<rect style="stroke: none; stroke-width: 1; stroke-dasharray: none; stroke-linecap: butt; stroke-dashoffset: 0; stroke-linejoin: miter; stroke-miterlimit: 4; fill: rgb(255,255,255); fill-rule: nonzero; opacity: 1; visibility: hidden;" vector-effect="non-scaling-stroke"  x="-200" y="-540" rx="0" ry="0" width="400" height="1080" />
</g>
<g transform="matrix(0 0 0 0 0 0)"  >
<g style=""   >
</g>
</g>
<g transform="matrix(0 0 0 0 0 0)"  >
<g style=""   >
</g>
</g>
<g transform="matrix(1 0 0 1 50 50)"  >
<rect style="stroke: none; stroke-width: 1; stroke-dasharray: none; stroke-linecap: butt; stroke-dashoffset: 0; stroke-linejoin: miter; stroke-miterlimit: 4; fill: rgb(255,255,255); fill-opacity: 0; fill-rule: nonzero; opacity: 1;" vector-effect="non-scaling-stroke"  x="-50" y="-50" rx="0" ry="0" width="100" height="100" />
</g>
<g transform="matrix(1 0 0 1 200 540)" id="a1ab9112-0dfd-4065-b43f-f59d050469a6"  >
<rect style="stroke: none; stroke-width: 1; stroke-dasharray: none; stroke-linecap: butt; stroke-dashoffset: 0; stroke-linejoin: miter; stroke-miterlimit: 4; fill: rgb(255,255,255); fill-rule: nonzero; opacity: 1; visibility: hidden;" vector-effect="non-scaling-stroke"  x="-200" y="-540" rx="0" ry="0" width="400" height="1080" />
</g>
<g transform="matrix(20.58 0 0 21.33 198.23 535.04)"  >
<path style="stroke: rgb(0,0,0); stroke-width: 1; stroke-dasharray: none; stroke-linecap: butt; stroke-dashoffset: 0; stroke-linejoin: miter; stroke-miterlimit: 4; fill: rgb(0,0,0); fill-rule: evenodd; opacity: 1;" vector-effect="non-scaling-stroke"  transform=" translate(-9.5, -24.97)" d="M 19 1.47742 C 19 0.655881 18.3289 -0.0396305 17.4758 0.00175716 C 14.4745 0.147369 11.9983 0.948638 10.0865 2.44294 C 7.93838 4.12197 6.87578 6.4793 6.87578 9.44886 L 6.87578 17.8442 C 6.87578 19.4933 6.37344 20.6246 5.44751 21.3455 C 4.63349 21.9792 3.32714 22.3925 1.45107 22.5186 C 0.660871 22.5717 0 23.2152 0 24.0419 L 0 25.9253 C 0 26.7618 0.674222 27.4051 1.46882 27.4539 C 3.16691 27.5583 4.43765 27.9452 5.32786 28.5693 L 5.33219 28.5723 C 6.32647 29.254 6.87578 30.422 6.87578 32.2204 L 6.87578 40.5334 C 6.87578 43.4789 7.89675 45.8175 9.96972 47.4805 C 11.8256 48.9694 14.3403 49.7745 17.4628 49.9445 C 18.3195 49.9911 19 49.2952 19 48.467 L 19 46.6192 C 19 45.7921 18.3408 45.1559 17.5612 45.089 C 15.991 44.9543 14.8189 44.5513 13.9978 43.9235 C 13.0804 43.2082 12.5714 42.029 12.5714 40.259 L 12.5714 32.1107 C 12.5714 30.0821 12.0409 28.4059 10.9304 27.1362 C 10.0547 26.135 8.85007 25.4228 7.34784 24.9774 C 8.85007 24.5321 10.0547 23.8198 10.9304 22.8187 C 12.0409 21.5489 12.5714 19.8727 12.5714 17.8442 L 12.5714 9.75065 C 12.5714 8.22031 12.9966 7.09945 13.7868 6.31679 C 14.5853 5.52605 15.8222 5.01497 17.5736 4.84657 C 18.3459 4.77231 19 4.13951 19 3.31625 L 19 1.47742 Z" stroke-linecap="round" />
</g>
</svg>